<svg width="300" height="300" viewBox="0 0 300 300" fill="none" xmlns="http://www.w3.org/2000/svg">
<path d="M181.32 60.35H38.91V239.65H181.32C229.72 239.65 269.09 199.43 269.09 150C269.09 100.57 229.71 60.35 181.32 60.35ZM258.99 150C258.99 193.78 224.15 229.39 181.32 229.39H49.01V70.61H181.32C224.15 70.61 258.99 106.22 258.99 150Z" fill="#AFAFAF"/>
<path d="M209.01 196.32C207.91 196.32 206.83 196.19 205.79 195.91C200.84 194.6 197.39 190.43 196.32 184.45L196.3 184.36C195.14 177.03 196.7 172.79 198.2 165.69L198.33 165.07C199.69 158.93 201.52 152.64 203.28 146.56C204.81 141.29 206.26 136.3 207.43 131.42C208.61 126.47 208.61 122.21 207.41 119.42C206.74 117.87 205.56 116.61 204.25 116.06C202.81 115.46 199.32 115.26 192.12 120.77C189.46 122.81 187.02 125.16 184.45 127.65C183.64 128.43 182.83 129.21 182.02 129.98C181.36 130.6 180.71 131.22 180.08 131.83C180.95 140.4 179.33 148.72 177.64 157.39L177.36 158.85C175.22 169.89 170.2 195.73 149.94 196.94C146.78 197.13 143.91 196.4 141.63 194.84C133.04 188.95 138.17 175.42 139.86 170.98C142.89 162.99 147.65 155.97 152.34 149.57C157.38 142.7 163.25 135.95 170.55 128.68C170.32 127.67 170.04 126.65 169.71 125.64C168.48 122.07 165.58 118.11 161.89 117.44C159.21 116.95 156.09 117.71 153.32 119.53C149.99 121.72 146.62 125.61 144.32 129.94C141.44 135.35 139.87 141.46 138.25 148.3L138.04 149.18C137.75 150.42 137.46 151.67 137.15 152.91C133.59 167.48 127.47 178.58 118.47 186.83C108.71 195.77 96.33 199.45 84.51 196.93C73.36 194.55 65.99 183.92 66.99 171.66C67.76 162.31 73.25 153.43 82.46 146.66C84.04 145.5 85.72 144.4 87.48 143.37C86.7 140.85 86.35 138.06 86.45 135.12C86.77 125.97 91.46 117.17 99 111.56C107.09 105.55 117.11 104 125.86 103.03L126.85 111.9C118.91 112.78 110.63 114.04 104.33 118.72C99.03 122.66 95.6 129.06 95.38 135.42C95.33 136.8 95.43 138.11 95.66 139.32C95.89 139.22 96.14 139.1 96.4 138.99C100.3 137.22 106.84 134.27 111.54 137.97C115.62 141.18 115.68 145.3 114.39 148.08C111.99 153.23 104.4 156.2 99.71 155.23C96.89 154.65 94.23 153.15 92.06 151.02C90.54 151.91 89.1 152.85 87.75 153.84C83.64 156.86 76.64 163.28 75.89 172.37C75.35 179 78.77 186.57 86.37 188.18C95.34 190.09 104.84 187.19 112.44 180.23C120.1 173.21 125.35 163.58 128.48 150.77C128.78 149.55 129.06 148.34 129.35 147.12L129.56 146.23C131.32 138.77 133.06 132.07 136.43 125.72C139.45 120.05 143.81 115.06 148.4 112.04C153.07 108.97 158.57 107.72 163.49 108.63C170.74 109.96 175.52 116.06 177.76 121.68C177.92 121.52 178.09 121.36 178.25 121.2C180.9 118.65 183.63 116 186.7 113.66C195.03 107.29 201.9 105.38 207.71 107.81C211.15 109.26 214.04 112.2 215.62 115.88C218.12 121.7 217.27 128.66 216.11 133.48C214.89 138.57 213.35 143.88 211.85 149.03C210.12 154.98 208.34 161.13 207.05 166.94L206.93 167.52C205.6 173.81 204.22 177.21 205.11 182.9C205.42 184.63 206.19 186.76 208.07 187.26C209.95 187.76 213.28 186.71 216.16 183.24L223.02 188.95C219.13 193.63 213.91 196.3 209.01 196.3V196.32ZM171.23 140.79C166.77 145.58 162.94 150.19 159.53 154.84C155.21 160.73 150.85 167.14 148.19 174.14C144.07 185 146.2 187.15 146.67 187.48C147.28 187.9 148.28 188.1 149.4 188.03C161.16 187.33 165.7 172.03 168.59 157.15L168.88 155.68C169.9 150.44 170.86 145.53 171.23 140.79ZM101.49 146.49C102.37 146.66 104.27 145.94 105.41 145.15C104.33 145.33 102.74 145.95 101.48 146.49H101.49Z" fill="#AFAFAF"/>
<path d="M171.36 107.52C175.78 108.04 179.79 104.87 180.3 100.45C179.78 104.87 182.95 108.88 187.37 109.39C182.95 108.87 178.94 112.04 178.43 116.46C178.95 112.04 175.78 108.03 171.36 107.52Z" fill="#AFAFAF"/>
</svg>
