<?xml version="1.0" encoding="UTF-8"?>
<svg id="Layer_1" data-name="Layer 1" xmlns="http://www.w3.org/2000/svg" viewBox="0 0 1080 1080">
  <defs>
    <style>
      .cls-1 {
        letter-spacing: -.04em;
      }

      .cls-2 {
        letter-spacing: -.02em;
      }

      .cls-3 {
        fill: #e57700;
        font-family: 'PlusJakartaSans_362.000wght_0ital', 'Plus Jakarta Sans';
        font-size: 33px;
        font-variation-settings: 'wght' 362;
      }

      .cls-4 {
        letter-spacing: -.03em;
      }

      .cls-5 {
        fill: #f50;
        stroke-width: 0px;
      }

      .cls-6 {
        letter-spacing: -.02em;
      }
    </style>
  </defs>
  <g>
    <path class="cls-5" d="M326.05,564.39v-86.66h30.66c27.29,0,40.87,15.91,40.87,43.33s-13.58,43.33-40.87,43.33h-30.66ZM337.3,487.69v66.74h17.59c19.66,0,31.04-8.67,31.04-33.37s-11.38-33.37-31.04-33.37h-17.59Z"/>
    <path class="cls-5" d="M409.99,564.39v-62.6h11.25v16.69c2.46-9.7,8.93-18.11,19.53-18.11,6.73,0,13.19,4.79,13.19,13.58,0,5.3-1.42,9.18-2.46,10.74h-12.29c2.07-1.81,3.75-5.69,3.75-9.18s-1.94-6.73-6.47-6.73c-8.02,0-15.26,9.44-15.26,20.18v35.44h-11.25Z"/>
    <rect class="cls-5" x="461.34" y="501.79" width="11.25" height="62.6"/>
    <path class="cls-5" d="M486.3,564.39v-62.6h11.25v16.56c2.46-9.57,8.93-17.85,20.18-17.85s17.85,6.6,18.5,18.37c2.46-9.96,8.92-18.37,20.31-18.37,12.29,0,18.63,7.37,18.63,20.57v43.33h-11.12v-40.61c0-9.18-4.4-13.71-13.71-13.71s-13.97,8.41-13.97,18.88v35.44h-11.25v-40.61c0-9.18-4.27-13.71-13.71-13.71s-13.84,8.41-13.84,18.88v35.44h-11.25Z"/>
    <rect class="cls-5" x="588.61" y="501.79" width="11.25" height="62.6"/>
    <path class="cls-5" d="M613.57,564.39v-62.6h11.25v16.69c2.46-9.7,9.18-17.98,21.47-17.98s19.92,7.37,19.92,20.7v43.2h-11.12v-40.49c0-8.15-3.23-13.84-13.84-13.84-12.03,0-16.43,8.41-16.43,18.88v35.44h-11.25Z"/>
    <path class="cls-5" d="M675.91,533.22c0-19.79,9.83-32.73,25.61-32.73,12.03,0,17.98,8.02,20.18,17.59v-40.36h11.25v86.66h-11.25v-16.04c-2.2,9.57-8.15,17.59-20.18,17.59-15.78,0-25.61-12.93-25.61-32.72ZM705.27,556.5c12.03,0,16.43-8.41,16.43-18.75v-8.93c0-10.35-4.4-18.75-16.43-18.75-9.83,0-17.98,7.24-17.98,23.15s8.15,23.28,17.98,23.28Z"/>
    <path class="cls-5" d="M743.43,533.09c0-19.79,12.16-32.6,29.36-32.6s28.46,11.77,28.46,30.14c0,1.94-.26,3.88-.52,5.04h-46.44c.65,13.19,8.02,20.7,19.14,20.7,12.55,0,17.59-6.86,20.05-12.29l6.86,7.76c-4.66,7.5-13.32,13.84-26.9,13.84-17.72,0-30.01-12.68-30.01-32.6ZM754.55,527.53h36.61c-1.16-11.51-7.89-17.59-18.37-17.59s-16.82,5.95-18.24,17.59Z"/>
    <path class="cls-5" d="M806.29,548.35l8.15-6.34c2.2,7.11,9.05,14.23,21.47,14.23,7.37,0,12.29-2.85,12.29-8.41s-5.69-7.5-13.06-9.18l-8.28-1.94c-8.93-2.07-18.63-6.34-18.63-17.85s8.8-18.37,22.38-18.37,22.38,6.99,25.87,15.26l-8.54,6.34c-3.1-7.37-9.05-12.03-17.98-12.03-6.47,0-11.12,2.85-11.12,8.15,0,5.56,4.14,7.5,12.68,9.57l8.02,2.07c14.1,3.36,18.76,9.18,18.76,17.85,0,12.42-10.61,17.98-22.77,17.98-13.06,0-24.96-5.69-29.23-17.33Z"/>
    <rect class="cls-5" x="868.11" y="501.79" width="11.25" height="62.6"/>
    <path class="cls-5" d="M905.36,542.66c-1.55,2.07-3.36,5.04-3.36,7.76,0,3.36,1.81,5.04,8.28,5.04h18.88c11.38,0,18.5,4.53,18.5,13.97,0,11.9-11.64,20.31-32.73,20.31-16.04,0-26.13-5.3-26.13-13.58,0-5.82,5.3-9.31,10.09-11.25-4.01-1.29-6.08-4.27-6.08-8.41,0-4.92,3.75-10.35,9.83-15.26-6.21-3.88-9.83-10.48-9.83-18.37,0-13.06,9.96-22.38,24.71-22.38,4.14,0,7.89.78,11.12,2.07l3.88-15,11.64,4.14-11.51,12.94c5.95,3.88,9.57,10.48,9.57,18.24,0,13.06-9.96,22.38-24.71,22.38-4.53,0-8.67-.9-12.16-2.59ZM937.18,570.99c0-4.01-3.1-5.82-9.44-5.82h-25.61c-2.07,1.81-4.27,4.53-4.27,7.5,0,5.04,5.82,8.15,17.07,8.15,14.23,0,22.25-3.62,22.25-9.83ZM931.36,522.87c0-8.54-5.95-13.71-13.84-13.71s-13.84,5.17-13.84,13.71,6.08,13.71,13.84,13.71,13.84-5.17,13.84-13.71Z"/>
    <path class="cls-5" d="M954.77,564.39v-62.6h11.25v16.69c2.46-9.7,9.18-17.98,21.47-17.98s19.92,7.37,19.92,20.7v43.2h-11.12v-40.49c0-8.15-3.23-13.84-13.84-13.84-12.03,0-16.43,8.41-16.43,18.88v35.44h-11.25Z"/>
    <path class="cls-5" d="M453.39,486.68h0c7.49,0,13.57-6.07,13.57-13.57h0c0,7.49,6.07,13.57,13.57,13.57h0c-7.49,0-13.57,6.07-13.57,13.57h0c0-7.49-6.07-13.57-13.57-13.57Z"/>
    <path class="cls-5" d="M580.67,486.68h0c7.49,0,13.57-6.07,13.57-13.57h0c0,7.49,6.07,13.57,13.57,13.57h0c-7.49,0-13.57,6.07-13.57,13.57h0c0-7.49-6.07-13.57-13.57-13.57Z"/>
    <path class="cls-5" d="M860.17,486.68h0c7.49,0,13.57-6.07,13.57-13.57h0c0,7.49,6.07,13.57,13.57,13.57h0c-7.49,0-13.57,6.07-13.57,13.57h0c0-7.49-6.07-13.57-13.57-13.57Z"/>
  </g>
  <g>
    <path class="cls-5" d="M224.26,473.85h-118.11v148.7h118.11c40.14,0,72.8-33.35,72.8-74.35s-32.66-74.35-72.8-74.35ZM288.68,548.2c0,36.31-28.9,65.84-64.42,65.84h-109.73v-131.68h109.73c35.52,0,64.42,29.54,64.42,65.84Z"/>
    <path class="cls-5" d="M247.22,586.61c-.91,0-1.81-.11-2.67-.34-4.11-1.08-6.97-4.55-7.86-9.51v-.07c-.97-6.08.32-9.6,1.56-15.48l.11-.51c1.13-5.09,2.64-10.31,4.11-15.35,1.27-4.37,2.47-8.51,3.44-12.55.98-4.1.98-7.64-.02-9.95-.55-1.29-1.53-2.33-2.62-2.79-1.2-.5-4.09-.66-10.06,3.91-2.21,1.69-4.23,3.64-6.36,5.7-.67.65-1.34,1.3-2.02,1.93-.55.52-1.08,1.03-1.61,1.54.73,7.1-.62,14-2.02,21.2l-.24,1.21c-1.78,9.15-5.94,30.59-22.74,31.59-2.62.16-5-.45-6.9-1.75-7.12-4.89-2.87-16.11-1.47-19.79,2.51-6.62,6.46-12.45,10.35-17.76,4.18-5.7,9.05-11.29,15.1-17.32-.19-.84-.42-1.68-.7-2.52-1.02-2.96-3.43-6.24-6.49-6.8-2.23-.41-4.81.22-7.11,1.73-2.76,1.82-5.55,5.05-7.46,8.64-2.39,4.48-3.69,9.55-5.03,15.23l-.17.73c-.24,1.03-.49,2.06-.74,3.09-2.96,12.09-8.02,21.29-15.49,28.13-8.09,7.41-18.36,10.47-28.17,8.38-9.25-1.97-15.36-10.79-14.53-20.96.64-7.76,5.19-15.12,12.83-20.73,1.31-.96,2.7-1.87,4.17-2.73-.65-2.09-.94-4.4-.86-6.84.26-7.59,4.15-14.89,10.41-19.54,6.71-4.99,15.02-6.27,22.28-7.08l.82,7.36c-6.58.73-13.45,1.77-18.68,5.66-4.4,3.27-7.24,8.58-7.42,13.85-.04,1.15.04,2.23.24,3.23.19-.09.4-.18.61-.28,3.24-1.46,8.66-3.92,12.55-.85,3.38,2.66,3.44,6.08,2.36,8.39-1.99,4.27-8.29,6.73-12.17,5.93-2.34-.48-4.55-1.72-6.34-3.49-1.26.73-2.46,1.52-3.58,2.34-3.41,2.5-9.22,7.83-9.83,15.37-.45,5.5,2.39,11.77,8.69,13.12,7.44,1.59,15.32-.82,21.63-6.6,6.35-5.82,10.71-13.81,13.3-24.43.25-1.01.48-2.02.72-3.03l.17-.74c1.46-6.19,2.9-11.74,5.7-17.01,2.5-4.7,6.12-8.84,9.93-11.34,3.87-2.55,8.44-3.58,12.52-2.83,6.01,1.1,9.98,6.16,11.83,10.83.14-.13.27-.26.41-.4,2.19-2.12,4.46-4.31,7.01-6.26,6.91-5.28,12.61-6.87,17.42-4.85,2.86,1.2,5.25,3.64,6.56,6.7,2.07,4.83,1.37,10.6.41,14.59-1.01,4.22-2.29,8.63-3.53,12.89-1.43,4.93-2.91,10.03-3.98,14.86l-.1.48c-1.1,5.21-2.24,8.04-1.51,12.76.26,1.43.9,3.2,2.45,3.62,1.56.41,4.32-.46,6.71-3.33l5.69,4.73c-3.22,3.88-7.56,6.1-11.62,6.1ZM215.89,540.56c-3.7,3.97-6.88,7.79-9.7,11.65-3.58,4.89-7.2,10.21-9.4,16-3.42,9.01-1.65,10.79-1.26,11.06.51.35,1.33.51,2.26.46,9.76-.58,13.52-13.27,15.92-25.61l.24-1.22c.85-4.35,1.64-8.42,1.95-12.35ZM158.05,545.28s0,0,0,0c.73.14,2.31-.46,3.25-1.11-.89.15-2.22.66-3.26,1.11Z"/>
    <path class="cls-5" d="M216,512.96h0c3.67.43,6.99-2.2,7.42-5.87h0c-.43,3.67,2.2,6.99,5.87,7.42h0c-3.67-.43-6.99,2.2-7.42,5.87h0c.43-3.67-2.2-6.99-5.87-7.42Z"/>
  </g>
  <text class="cls-3" transform="translate(326.72 611.79)"><tspan class="cls-2" x="0" y="0">Vision and cr</tspan><tspan class="cls-4" x="185.36" y="0">ea</tspan><tspan class="cls-2" x="222.35" y="0">tivity </tspan><tspan class="cls-1" x="297.52" y="0">t</tspan><tspan class="cls-6" x="308.81" y="0">o r</tspan><tspan class="cls-4" x="344.78" y="0">e</tspan><tspan class="cls-2" x="364.02" y="0">ality</tspan></text>
</svg>