<?xml version="1.0" encoding="UTF-8"?>
<svg id="Layer_1" data-name="Layer 1" xmlns="http://www.w3.org/2000/svg" viewBox="0 0 740.18 740.18">
  <defs>
    <style>
      .cls-1 {
        fill: #fff;
      }

      .cls-1, .cls-2 {
        stroke-width: 0px;
      }

      .cls-2 {
        fill: #f50;
      }
    </style>
  </defs>
  <path class="cls-2" d="M49.76,111.01h398.52c148.13,0,268.39,120.26,268.39,268.39h0c0,148.13-120.26,268.39-268.39,268.39H49.76V111.01h0Z"/>
  <path class="cls-1" d="M550.02,523.1c-3.32,0-6.6-.41-9.77-1.24-15-3.96-25.47-16.62-28.71-34.74l-.05-.27c-3.5-22.22,1.2-35.07,5.75-56.58l.4-1.88c4.12-18.61,9.66-37.68,15.02-56.11,4.64-15.98,9.03-31.08,12.57-45.87,3.59-15,3.57-27.91-.06-36.37-2.02-4.71-5.6-8.52-9.57-10.19-4.37-1.83-14.94-2.41-36.76,14.27-8.07,6.17-15.44,13.29-23.26,20.84-2.45,2.37-4.9,4.73-7.38,7.07-2,1.89-3.96,3.76-5.88,5.61,2.65,25.96-2.27,51.18-7.39,77.47l-.86,4.42c-6.49,33.45-21.7,111.78-83.11,115.45-9.57.57-18.29-1.63-25.2-6.38-26.03-17.86-10.48-58.85-5.37-72.32,9.19-24.21,23.61-45.49,37.83-64.88,15.27-20.82,33.07-41.27,55.19-63.31-.69-3.07-1.53-6.15-2.55-9.23-3.72-10.81-12.53-22.81-23.7-24.86-8.14-1.49-17.59.82-25.98,6.34-10.1,6.64-20.29,18.44-27.27,31.56-8.72,16.39-13.48,34.9-18.39,55.66l-.63,2.67c-.89,3.77-1.77,7.54-2.69,11.3-10.8,44.17-29.32,77.79-56.62,102.8-29.58,27.09-67.1,38.25-102.94,30.61-33.81-7.2-56.14-39.42-53.09-76.6,2.32-28.34,18.97-55.25,46.87-75.76,4.79-3.52,9.87-6.85,15.23-9.98-2.37-7.64-3.44-16.1-3.13-24.99.97-27.73,15.18-54.42,38.03-71.4,24.52-18.22,54.87-22.9,81.4-25.86l2.99,26.89c-24.06,2.68-49.15,6.48-68.25,20.68-16.07,11.94-26.46,31.34-27.13,50.62-.15,4.2.15,8.17.86,11.81.71-.31,1.46-.65,2.24-1.01,11.83-5.35,31.64-14.31,45.88-3.09,12.36,9.74,12.56,22.22,8.63,30.65-7.26,15.6-30.29,24.6-44.48,21.67-8.53-1.77-16.62-6.29-23.18-12.75-4.62,2.69-8.98,5.54-13.07,8.54-12.45,9.15-33.68,28.62-35.93,56.17-1.65,20.1,8.74,43.02,31.77,47.93,27.17,5.79,55.98-3,79.03-24.1,23.22-21.27,39.13-50.48,48.61-89.28.9-3.68,1.77-7.38,2.64-11.07l.63-2.69c5.34-22.62,10.6-42.91,20.83-62.15,9.14-17.19,22.37-32.3,36.29-41.45,14.16-9.32,30.83-13.09,45.74-10.34,21.97,4.04,36.46,22.51,43.23,39.56.5-.48,1-.96,1.5-1.45,8.02-7.74,16.31-15.75,25.62-22.86,25.25-19.31,46.08-25.11,63.66-17.73,10.44,4.38,19.17,13.3,23.96,24.47,7.56,17.65,4.99,38.74,1.5,53.33-3.69,15.42-8.37,31.53-12.9,47.12-5.24,18.02-10.65,36.66-14.56,54.29l-.37,1.76c-4.03,19.05-8.2,29.37-5.52,46.62.95,5.23,3.28,11.71,8.96,13.21,5.69,1.51,15.79-1.67,24.52-12.18l20.81,17.29c-11.78,14.18-27.62,22.28-42.47,22.28ZM435.52,354.8c-13.52,14.52-25.13,28.48-35.46,42.57-13.09,17.85-26.32,37.29-34.35,58.48-12.49,32.91-6.04,39.44-4.62,40.42,1.85,1.27,4.87,1.88,8.27,1.68,35.66-2.13,49.41-48.51,58.17-93.59l.86-4.44c3.1-15.9,6-30.75,7.13-45.12ZM224.17,372.07s.02,0,.03,0c2.67.51,8.43-1.67,11.89-4.07-3.27.54-8.1,2.43-11.92,4.06Z"/>
  <path class="cls-1" d="M435.93,253.96h0c13.41,1.57,25.54-8.03,27.11-21.44h0c-1.57,13.41,8.03,25.54,21.44,27.11h0c-13.41-1.57-25.54,8.03-27.11,21.44h0c1.57-13.41-8.03-25.54-21.44-27.11Z"/>
</svg>