<?xml version="1.0" encoding="UTF-8"?>
<svg id="Layer_1" data-name="Layer 1" xmlns="http://www.w3.org/2000/svg" viewBox="0 0 300 300">
  <defs>
    <style>
      .cls-1 {
        fill: #f50;
        stroke-width: 0px;
      }
    </style>
  </defs>
  <path class="cls-1" d="M181.32,60.35H38.91v179.3h142.41c48.4,0,87.77-40.22,87.77-89.65s-39.38-89.65-87.77-89.65ZM258.99,150c0,43.78-34.84,79.39-77.67,79.39H49.01V70.61h132.31c42.83,0,77.67,35.61,77.67,79.39Z"/>
  <path class="cls-1" d="M209.01,196.32c-1.1,0-2.18-.13-3.22-.41-4.95-1.31-8.4-5.48-9.47-11.46l-.02-.09c-1.16-7.33.4-11.57,1.9-18.67l.13-.62c1.36-6.14,3.19-12.43,4.95-18.51,1.53-5.27,2.98-10.26,4.15-15.14,1.18-4.95,1.18-9.21-.02-12-.67-1.55-1.85-2.81-3.16-3.36-1.44-.6-4.93-.8-12.13,4.71-2.66,2.04-5.1,4.39-7.67,6.88-.81.78-1.62,1.56-2.43,2.33-.66.62-1.31,1.24-1.94,1.85.87,8.57-.75,16.89-2.44,25.56l-.28,1.46c-2.14,11.04-7.16,36.88-27.42,38.09-3.16.19-6.03-.54-8.31-2.1-8.59-5.89-3.46-19.42-1.77-23.86,3.03-7.99,7.79-15.01,12.48-21.41,5.04-6.87,10.91-13.62,18.21-20.89-.23-1.01-.51-2.03-.84-3.04-1.23-3.57-4.13-7.53-7.82-8.2-2.68-.49-5.8.27-8.57,2.09-3.33,2.19-6.7,6.08-9,10.41-2.88,5.41-4.45,11.52-6.07,18.36l-.21.88c-.29,1.24-.58,2.49-.89,3.73-3.56,14.57-9.68,25.67-18.68,33.92-9.76,8.94-22.14,12.62-33.96,10.1-11.15-2.38-18.52-13.01-17.52-25.27.77-9.35,6.26-18.23,15.47-25,1.58-1.16,3.26-2.26,5.02-3.29-.78-2.52-1.13-5.31-1.03-8.25.32-9.15,5.01-17.95,12.55-23.56,8.09-6.01,18.11-7.56,26.86-8.53l.99,8.87c-7.94.88-16.22,2.14-22.52,6.82-5.3,3.94-8.73,10.34-8.95,16.7-.05,1.38.05,2.69.28,3.9.23-.1.48-.22.74-.33,3.9-1.77,10.44-4.72,15.14-1.02,4.08,3.21,4.14,7.33,2.85,10.11-2.4,5.15-9.99,8.12-14.68,7.15-2.82-.58-5.48-2.08-7.65-4.21-1.52.89-2.96,1.83-4.31,2.82-4.11,3.02-11.11,9.44-11.86,18.53-.54,6.63,2.88,14.2,10.48,15.81,8.97,1.91,18.47-.99,26.07-7.95,7.66-7.02,12.91-16.65,16.04-29.46.3-1.22.58-2.43.87-3.65l.21-.89c1.76-7.46,3.5-14.16,6.87-20.51,3.02-5.67,7.38-10.66,11.97-13.68,4.67-3.07,10.17-4.32,15.09-3.41,7.25,1.33,12.03,7.43,14.27,13.05.16-.16.33-.32.49-.48,2.65-2.55,5.38-5.2,8.45-7.54,8.33-6.37,15.2-8.28,21.01-5.85,3.44,1.45,6.33,4.39,7.91,8.07,2.5,5.82,1.65,12.78.49,17.6-1.22,5.09-2.76,10.4-4.26,15.55-1.73,5.95-3.51,12.1-4.8,17.91l-.12.58c-1.33,6.29-2.71,9.69-1.82,15.38.31,1.73,1.08,3.86,2.96,4.36s5.21-.55,8.09-4.02l6.86,5.71c-3.89,4.68-9.11,7.35-14.01,7.35v.02ZM171.23,140.79c-4.46,4.79-8.29,9.4-11.7,14.05-4.32,5.89-8.68,12.3-11.34,19.3-4.12,10.86-1.99,13.01-1.52,13.34.61.42,1.61.62,2.73.55,11.76-.7,16.3-16,19.19-30.88l.29-1.47c1.02-5.24,1.98-10.15,2.35-14.89ZM101.49,146.49h0c.88.17,2.78-.55,3.92-1.34-1.08.18-2.67.8-3.93,1.34h.01Z"/>
  <path class="cls-1" d="M171.36,107.52h0c4.42.52,8.43-2.65,8.94-7.07h0c-.52,4.42,2.65,8.43,7.07,8.94h0c-4.42-.52-8.43,2.65-8.94,7.07h0c.52-4.42-2.65-8.43-7.07-8.94Z"/>
</svg>